Motion_pl10
version=1
nRows=12
nColumns=43
inDegrees=yes
endheader
time	pelvis_tilt	pelvis_list	pelvis_rotation	pelvis_tx	pelvis_ty	pelvis_tz	hip_flexion_r	hip_adduction_r	hip_rotation_r	knee_angle_r	ankle_angle_r	subtalar_angle_r	mtp_angle_r	hip_flexion_l	hip_adduction_l	hip_rotation_l	knee_angle_l	ankle_angle_l	subtalar_angle_l	mtp_angle_l	lumbar_extension	lumbar_bending	lumbar_rotation	neck_flexion	neck_lateral_bending	neck_rotation	arm_flex_r	arm_add_r	arm_rot_r	elbow_flex_r	pro_sup_r	wrist_flex_r	wrist_dev_r	hand_finger_flex_r	arm_flex_l	arm_add_l	arm_rot_l	elbow_flex_l	pro_sup_l	wrist_flex_l	wrist_dev_l	hand_finger_flex_l
      2.90750000	      0.35756524	    -10.20562839	     88.39287454	     -0.02457090	      0.74793455	      0.36998141	     52.12758207	     -6.91058667	     -0.95285002	    -76.74474774	     14.04444188	     11.93369648	     27.66650271	     51.71904487	     -5.05678410	     -0.24421326	    -83.43013693	      8.62505827	      6.87807220	     37.40913411	    -35.72847178	      1.48740734	     -1.48402577	     42.44035305	      0.02537905	    -21.13249698	     23.69832039	    -16.79698063	    -11.72398923	     36.24671701	    132.74117095	      4.34146544	    -10.43136352	    -23.24623682	     13.64708385	    -16.56538190	    -20.19877173	     42.85892319	    134.55188991	     -4.10304958	     -4.43545506	    -23.30084387
      2.91000000	      0.43165789	    -10.02526703	     88.41821832	     -0.02463753	      0.74887487	      0.36934359	     51.74452660	     -6.89215965	     -1.09580164	    -76.54622196	     14.12931354	     11.85784900	     27.62613351	     51.38047941	     -5.09344806	     -0.20327164	    -83.28289406	      8.69206719	      6.90796669	     37.35807513	    -35.73270224	      1.59175037	     -1.52093799	     41.93762505	     -0.03135593	    -21.17098702	     23.12347931	    -16.54398724	    -12.65146390	     36.10775185	    132.71144570	      4.16114725	    -10.51422070	    -23.03695979	     12.97107144	    -16.33219662	    -20.86857622	     42.84334130	    134.29762785	     -4.04258669	     -4.46591650	    -23.29884449
      2.91250000	      0.43450405	    -10.02554752	     88.41570343	     -0.02464043	      0.74966336	      0.36878539	     51.59022498	     -6.87837921	     -1.09397785	    -76.36142715	     14.08469006	     11.86067161	     27.61775019	     51.22971466	     -5.07952685	     -0.18480626	    -83.10637872	      8.65447094	      6.91976198	     37.34918554	    -35.57963932	      1.59892655	     -1.52185256	     41.98293126	     -0.03619237	    -21.17915912	     22.61005097	    -16.57910164	    -12.70801984	     35.85660805	    132.73218891	      4.19374017	    -10.46639861	    -23.00274778	     12.45275565	    -16.31251747	    -20.92638533	     42.58916618	    134.29103093	     -3.99730189	     -4.41215086	    -23.28701062
      2.91500000	      0.50733470	     -9.86839832	     88.45309854	     -0.02464289	      0.75062960	      0.36811514	     51.21076401	     -6.86683924	     -1.24949173	    -76.13382153	     14.14330209	     11.80811824	     27.57442509	     50.90629859	     -5.12966795	     -0.15399142	    -82.93639364	      8.72139955	      6.96804765	     37.29499320	    -35.57394443	      1.69376018	     -1.54396449	     41.65495434	     -0.08122952	    -21.20162547	     22.05919587	    -16.37439179	    -13.51245550	     35.68570217	    132.72764501	      4.10213071	    -10.59828298	    -22.74899505	     11.83297155	    -16.11948215	    -21.49642826	     42.51957861	    134.09876422	     -3.86452511	     -4.45838875	    -23.29800365
      2.91750000	      0.51091034	     -9.86827888	     88.44003085	     -0.02470188	      0.75140668	      0.36754721	     51.06459206	     -6.85186495	     -1.24539786	    -75.96018971	     14.09898839	     11.81210974	     27.56630399	     50.75135663	     -5.11149738	     -0.13595417	    -82.75782558	      8.68049279	      6.97993394	     37.28607168	    -35.41818301	      1.71174975	     -1.54510865	     41.70363524	     -0.08415188	    -21.21080881	     21.55961990	    -16.41336353	    -13.56750054	     35.44097718	    132.74742729	      4.13213348	    -10.55455389	    -22.71657529	     11.31607068	    -16.08983755	    -21.54690368	     42.26414281	    134.09802867	     -3.82000216	     -4.40464315	    -23.29013716
      2.92000000	      0.57243435	     -9.73401101	     88.46726170	     -0.02467887	      0.75236195	      0.36689528	     50.71379057	     -6.84534673	     -1.38822468	    -75.72499025	     14.13233608	     11.79014730	     27.52742426	     50.45220085	     -5.16974064	     -0.13295583	    -82.58153761	      8.71507785	      7.00094201	     37.23836707	    -35.38788344	      1.78611472	     -1.55362844	     41.41566084	     -0.14570744	    -21.22976117	     21.00636456	    -16.23816446	    -14.29129601	     35.25976473	    132.72570467	      4.02606857	    -10.70999155	    -22.50735238	     10.72428452	    -15.90857746	    -22.05159734	     42.17710836	    133.97913498	     -3.74502370	     -4.43496909	    -23.35537979
      2.92250000	      0.57703086	     -9.73437793	     88.45061627	     -0.02476419	      0.75315499	      0.36632631	     50.56869007	     -6.82942668	     -1.38352372	    -75.55523363	     14.08923051	     11.79514038	     27.51943913	     50.29681176	     -5.14964415	     -0.11908869	    -82.39643779	      8.67322602	      7.01035426	     37.22968379	    -35.22981608	      1.80972043	     -1.55115056	     41.46275913	     -0.14719503	    -21.24113756	     20.51896971	    -16.27649169	    -14.35739163	     35.01968157	    132.74153263	      4.04874775	    -10.66821255	    -22.47762869	     10.20829355	    -15.86951321	    -22.10470760	     41.92426994	    133.98168765	     -3.70659069	     -4.38122638	    -23.35321277
      2.92500000	      0.63621574	     -9.61503495	     88.45480425	     -0.02473957	      0.75413332	      0.36569189	     50.23570857	     -6.80740660	     -1.50965624	    -75.30507873	     14.10733308	     11.79169341	     27.48260382	     50.00694658	     -5.22094160	     -0.13753565	    -82.21117138	      8.69153432	      6.99035692	     37.18788154	    -35.18794546	      1.86970219	     -1.53748488	     41.20043337	     -0.20985127	    -21.27508677	     19.97788508	    -16.09420590	    -15.11142971	     34.82272039	    132.69385474	      3.89515847	    -10.79153453	    -22.30477646	      9.63556415	    -15.66934776	    -22.60681677	     41.84429404	    133.91039886	     -3.72289037	     -4.39364449	    -23.48052490
      2.92750000	      0.64142714	     -9.61757852	     88.43452989	     -0.02485935	      0.75495394	      0.36514618	     50.09407906	     -6.78880864	     -1.49776436	    -75.12848008	     14.06249132	     11.79707818	     27.47453982	     49.85413169	     -5.20289587	     -0.12654447	    -82.01951304	      8.64921922	      6.99707244	     37.17964726	    -35.02732072	      1.89653517	     -1.53704214	     41.24713438	     -0.21006023	    -21.28672447	     19.49717247	    -16.13648935	    -15.18194644	     34.58559465	    132.70853779	      3.91319662	    -10.74316538	    -22.27779706	      9.13254291	    -15.62860500	    -22.65902595	     41.60153740	    133.91682509	     -3.69296237	     -4.34064950	    -23.48363785
      2.93000000	      0.70253918	     -9.51802218	     88.39482434	     -0.02487396	      0.75600982	      0.36459394	     49.78984915	     -6.72022460	     -1.56610511	    -74.85373341	     14.05081223	     11.78756147	     27.43373834	     49.56855130	     -5.28800186	     -0.16237575	    -81.80296913	      8.66617504	      6.94963462	     37.13820580	    -34.98248532	      1.94938888	     -1.48655534	     41.02166956	     -0.25202964	    -21.32623646	     18.99216047	    -15.96084104	    -15.94916447	     34.39981650	    132.67514534	      3.72947507	    -10.74621097	    -22.11890969	      8.57114651	    -15.41120728	    -23.13438532	     41.52713246	    133.89528875	     -3.77799907	     -4.33239025	    -23.66319165
      2.93250000	      0.70458906	     -9.52687076	     88.38156743	     -0.02495509	      0.75687871	      0.36407500	     49.64412664	     -6.69454842	     -1.54648380	    -74.66236566	     14.00069919	     11.79156992	     27.42512910	     49.42674427	     -5.27333352	     -0.15792919	    -81.61533555	      8.62716960	      6.95501555	     37.13016425	    -34.82266722	      1.96587690	     -1.48813119	     41.06451749	     -0.25455720	    -21.33394415	     18.50395161	    -16.00448805	    -16.01672944	     34.16172301	    132.69232400	      3.74591352	    -10.68274794	    -22.09480241	      8.08374575	    -15.37841179	    -23.18684002	     41.29853761	    133.90391425	     -3.75508486	     -4.28020840	    -23.66918123
      2.93500000	      0.74754463	     -9.45648070	     88.30057298	     -0.02491089	      0.75793747	      0.36361054	     49.37755723	     -6.58372827	     -1.54703386	    -74.36012855	     13.94853319	     11.74599093	     27.38196841	     49.17080709	     -5.36967882	     -0.22159825	    -81.38988999	      8.67188732	      6.90842651	     37.08808847	    -34.75171816	      1.97846312	     -1.41512381	     40.82838462	     -0.28447165	    -21.34732361	     18.00339405	    -15.84608832	    -16.69113991	     34.01303462	    132.69306723	      3.55306938	    -10.49781999	    -21.98669314	      7.53037505	    -15.18681537	    -23.59497708	     41.25041488	    133.90575498	     -3.85187179	     -4.25119032	    -23.83635551
